<?xml version="1.0" standalone="no"?>
<!DOCTYPE svg PUBLIC "-//W3C//DTD SVG 20010904//EN"
 "http://www.w3.org/TR/2001/REC-SVG-20010904/DTD/svg10.dtd">
<svg version="1.0" xmlns="http://www.w3.org/2000/svg"
 width="122.000000pt" height="133.000000pt" viewBox="0 0 122.000000 133.000000"
 preserveAspectRatio="xMidYMid meet">

<g transform="translate(0.000000,133.000000) scale(0.100000,-0.100000)"
fill="#000000" stroke="none">
<path d="M320 780 l0 -50 205 0 205 0 0 50 0 50 -205 0 -205 0 0 -50z m395 0
l0 -25 -187 -3 -188 -2 0 23 c0 13 3 27 7 31 4 3 88 5 187 4 l181 -3 0 -25z"/>
<path d="M320 620 l0 -50 205 0 205 0 0 50 0 50 -205 0 -205 0 0 -50z m395 0
l0 -25 -187 -3 -188 -2 0 30 0 30 188 -2 187 -3 0 -25z"/>
<path d="M320 460 l0 -50 205 0 205 0 0 50 0 50 -205 0 -205 0 0 -50z m395 0
l0 -25 -185 0 -185 0 -3 28 -3 27 188 -2 188 -3 0 -25z"/>
</g>
</svg>
