<?xml version="1.0" standalone="no"?>
<!DOCTYPE svg PUBLIC "-//W3C//DTD SVG 20010904//EN"
 "http://www.w3.org/TR/2001/REC-SVG-20010904/DTD/svg10.dtd">
<svg version="1.0" xmlns="http://www.w3.org/2000/svg"
 width="74.000000pt" height="78.000000pt" viewBox="0 0 74.000000 78.000000"
 preserveAspectRatio="xMidYMid meet">

<g transform="translate(0.000000,78.000000) scale(0.100000,-0.100000)"
fill="#000000" stroke="none">
<path d="M197 457 c-28 -85 -37 -129 -37 -180 l0 -67 190 0 190 0 2 38 c4 72
-2 108 -38 214 l-36 108 -117 0 -117 0 -37 -113z m291 -5 c18 -54 32 -101 32
-105 0 -4 -18 -7 -40 -7 -34 0 -42 -4 -55 -30 -15 -28 -19 -30 -73 -30 -53 0
-58 2 -74 30 -15 26 -23 30 -58 30 -22 0 -40 1 -40 3 0 3 55 168 65 195 3 8
34 12 108 12 l103 0 32 -98z m-220 -167 c11 -23 16 -25 85 -25 69 0 75 2 85
25 10 21 19 25 52 25 l41 0 -3 -37 -3 -38 -172 -3 -173 -2 0 40 c0 40 0 40 38
40 32 0 41 -5 50 -25z"/>
</g>
</svg>
